<?xml version="1.0" encoding="UTF-8"?>
<svg id="Layer_1" data-name="Layer 1" xmlns="http://www.w3.org/2000/svg" viewBox="0 0 8.06 8.2">
  <defs>
    <style>
      .cls-1 {
        fill: none;
      }

      .cls-1, .cls-2 {
        stroke-width: 0px;
      }

      .cls-2 {
        fill: #cf1259;
      }
    </style>
  </defs>
  <path class="cls-1" d="m4.38,6.14l.19-.03-.18-.05c-.3-.08-.58-.21-.83-.39-.44-.32-.75-.78-.89-1.31s-.1-1.08.12-1.58c.12-.26.28-.5.49-.71.01-.01.02-.03.03-.04l.14-.13-.18.07c-.5.19-.91.56-1.16,1.03-.25.48-.31,1.03-.17,1.56.13.5.44.92.85,1.2.36.25.79.4,1.25.4.12,0,.24,0,.35-.03Z"/>
  <path class="cls-1" d="m5.84,2.81l-.11-.16.04.19c.05.26.01.51-.08.75-.11.31-.32.58-.62.76-.13.07-.26.13-.41.16h0c-.14.04-.28.07-.43.07-.61,0-1.15-.38-1.36-.96l-.07-.19v.2c-.02.23,0,.46.06.69.25.95,1.11,1.61,2.09,1.61.02,0,.05,0,.07,0h0s0,0,0,0c.11-.06.2-.15.3-.23.27-.22.51-.48.66-.8.2-.45.24-.96.11-1.43-.06-.22-.15-.44-.28-.63Z"/>
  <path class="cls-1" d="m3.13,3.31l.04.19.04-.19c.06-.26.22-.48.44-.61.14-.08.3-.12.46-.12.33,0,.64.18.81.46.19.32.16.72-.06,1.02l-.11.15.16-.09s0,0,0,0c.28-.16.48-.42.56-.73.07-.25.03-.51-.06-.75-.26-.45-.7-.7-1.38-.7-.05,0-.08,0-.13.01-.07.02-.13.05-.2.08-.45.26-.68.77-.58,1.28Z"/>
  <path class="cls-1" d="m4.25,3.54c-.07.04-.11.1-.13.17-.02.07,0,.15.03.22.05.09.15.14.25.14.05,0,.1-.01.14-.04.14-.08.18-.25.1-.39-.05-.09-.15-.14-.25-.14-.05,0-.1.01-.14.04Z"/>
  <path class="cls-1" d="m4.8,3.43l-.04-.12s-.03-.08-.05-.11c-.12-.21-.36-.35-.6-.35-.12,0-.24.03-.35.09-.16.09-.28.24-.32.42-.05.18-.02.37.07.53.11.19.31.32.53.34h.13s-.1-.07-.1-.07c-.04-.04-.08-.08-.11-.13-.07-.12-.09-.26-.05-.39s.12-.25.24-.31c.08-.05.17-.07.26-.07.11,0,.21.03.3.09l.1.07Z"/>
  <path class="cls-2" d="m4.02,0C1.7,0,0,1.31,0,4.11s1.7,4.09,4.02,4.09,4.04-1.34,4.04-4.09S6.35,0,4.02,0Zm1.99,4.87c-.14.32-.38.59-.66.8-.1.08-.19.17-.3.23h0s0,0,0,0c-.02,0-.05,0-.07,0-.98,0-1.84-.66-2.09-1.61-.06-.22-.08-.46-.07-.69v-.2s.08.19.08.19c.2.57.75.96,1.36.96.15,0,.29-.02.43-.07h0c.14-.03.28-.09.41-.16.3-.17.51-.45.62-.76.09-.24.12-.49.08-.75l-.04-.19.11.16c.13.19.22.4.28.63.13.48.09.98-.11,1.43Zm-4.08-.31c-.14-.52-.08-1.08.17-1.56.25-.48.66-.84,1.16-1.03l.18-.07-.14.13s-.02.03-.03.04c-.2.21-.37.44-.49.71-.22.49-.26,1.06-.12,1.58s.46.99.89,1.31c.25.18.53.31.83.39l.18.05-.19.03c-.12.02-.23.03-.35.03-.46,0-.89-.15-1.25-.4-.4-.29-.71-.7-.85-1.2Zm2.1-2.62c.68,0,1.12.25,1.38.7.1.24.13.5.06.75-.08.31-.28.57-.56.73,0,0,0,0,0,0l-.16.09.11-.15c.22-.3.24-.7.06-1.02-.17-.29-.47-.46-.81-.46-.16,0-.32.04-.46.12-.23.13-.39.35-.44.61l-.04.19-.04-.19c-.1-.51.13-1.02.58-1.28.06-.04.13-.06.2-.08.04,0,.08-.01.13-.01Zm.36,1.33c-.09,0-.18.02-.26.07-.12.07-.21.18-.24.31s-.02.27.05.39c.03.05.06.09.11.13l.1.08h-.13c-.22-.04-.42-.17-.53-.36-.09-.16-.12-.35-.07-.53.05-.18.16-.33.32-.42.11-.06.23-.09.35-.09.25,0,.48.13.6.35.02.04.04.07.05.11l.04.12-.1-.07c-.09-.06-.19-.09-.3-.09Zm.14.77s-.09.04-.14.04c-.1,0-.2-.06-.25-.14-.04-.07-.05-.14-.03-.22.02-.07.07-.14.13-.17.04-.03.09-.04.14-.04.1,0,.2.05.25.14.08.14.03.31-.1.39Z"/>
</svg>